# xmcd
#
# Track frame offsets: 
#        150
#        17772
#        35787
#        50920
#        65622
#        81390
#        98737
#        113925
#        131002
#        145617
#        161150
#        178170
#        192642
#        207952
#        223467
#        240900
#        255915
#        273267
#        288070
#        304402
#
# Disc length: 4292 seconds
#
# Revision: 4
# Processed by: cddbd v1.5.2PL0 Copyright (c) Steve Scherf et al.
# Submitted via: ExactAudioCopy v0.99pb5
#
DISCID=2810c214,3610c214
DTITLE=Various Artist - Die deutsche Schlagerparade - 2001-1 - CD 1
DYEAR=2001
DGENRE=Schlager
TTITLE0=Matthias Reim - Wolkenreiter
TTITLE1=Udo Jürgens - Mehr als nur vier Wände
TTITLE2=Vikinger - Wach' ich oder träum' ich
TTITLE3=Tom Astor - Ich will zurück zu mir
TTITLE4=Mary Roos - Rodeo
TTITLE5=Olaf Henning - Cowboy und Indianer
TTITLE6=Zlatko - Basta, Ende, Schluss und aus
TTITLE7=Petra Frey and Oliver Haidt - Titanic (Teil II)
TTITLE8=Bernhard Brink - Wo bist du
TTITLE9=Andreas - Zusammen sind wir ein Feuer
TTITLE10=Ibo - Schwarze Rose
TTITLE11=Gaby Baginsky - Bodyguard
TTITLE12=Markus - Nimm mich an die Hand
TTITLE13=Frank Schöbel - Heimliche Träume
TTITLE14=Monika Martin - Schweige mein Herz
TTITLE15=Uta Bresan - Liebe ist wie ein Wunder
TTITLE16=Peter Sebastian - Ich fühl' mich wohl
TTITLE17=Peter Lorenz - Kannst du mir verzeihn
TTITLE18=Sabrina - Olé, ola
TTITLE19=Chantal - Lass mich noch mal deine Sehnsucht spürn
EXTD=
EXTT0=
EXTT1=
EXTT2=
EXTT3=
EXTT4=
EXTT5=
EXTT6=
EXTT7=
EXTT8=
EXTT9=
EXTT10=
EXTT11=
EXTT12=
EXTT13=
EXTT14=
EXTT15=
EXTT16=
EXTT17=
EXTT18=
EXTT19=
PLAYORDER=
